<?xml version="1.0" encoding="UTF-8" standalone="no"?>
<!-- Created with Inkscape (http://www.inkscape.org/) -->

<svg
   xmlns:dc="http://purl.org/dc/elements/1.1/"
   xmlns:cc="http://creativecommons.org/ns#"
   xmlns:rdf="http://www.w3.org/1999/02/22-rdf-syntax-ns#"
   xmlns:svg="http://www.w3.org/2000/svg"
   xmlns="http://www.w3.org/2000/svg"
   xmlns:sodipodi="http://sodipodi.sourceforge.net/DTD/sodipodi-0.dtd"
   xmlns:inkscape="http://www.inkscape.org/namespaces/inkscape"
   width="68.992813mm"
   height="17.804136mm"
   viewBox="0 0 68.992811 17.804137"
   version="1.1"
   id="svg8"
   inkscape:version="0.92.3 (2405546, 2018-03-11)"
   sodipodi:docname="logo.svg">
  <defs
     id="defs2" />
  <sodipodi:namedview
     id="base"
     pagecolor="#ffffff"
     bordercolor="#666666"
     borderopacity="1.0"
     inkscape:pageopacity="0.0"
     inkscape:pageshadow="2"
     inkscape:zoom="3.6203867"
     inkscape:cx="107.38143"
     inkscape:cy="12.520483"
     inkscape:document-units="mm"
     inkscape:current-layer="layer1"
     showgrid="false"
     inkscape:window-width="1920"
     inkscape:window-height="1051"
     inkscape:window-x="-9"
     inkscape:window-y="-9"
     inkscape:window-maximized="1"
     showguides="true"
     inkscape:guide-bbox="true" />
  <metadata
     id="metadata5">
    <rdf:RDF>
      <cc:Work
         rdf:about="">
        <dc:format>image/svg+xml</dc:format>
        <dc:type
           rdf:resource="http://purl.org/dc/dcmitype/StillImage" />
        <dc:title />
      </cc:Work>
    </rdf:RDF>
  </metadata>
  <g
     inkscape:label="Layer 1"
     inkscape:groupmode="layer"
     id="layer1"
     transform="translate(-18.891189,-14.100157)">
    <g
       id="g1563"
       transform="matrix(0.89608429,0,0,0.89138668,2.3868695,2.4264241)">
      <path
         d="m 19.850712,30.187637 -0.553704,0.359579 0.887458,1.366567 -0.206077,0.133828 -0.887459,-1.366566 -0.553704,0.35958 -0.118959,-0.183181 1.313486,-0.852988 z"
         style="font-style:normal;font-variant:normal;font-weight:normal;font-stretch:normal;font-size:medium;line-height:1.25;font-family:sans-serif;-inkscape-font-specification:sans-serif;font-variant-ligatures:normal;font-variant-position:normal;font-variant-caps:normal;font-variant-numeric:normal;font-variant-alternates:normal;font-feature-settings:normal;text-indent:0;text-align:start;text-decoration:none;text-decoration-line:none;text-decoration-style:solid;text-decoration-color:#000000;letter-spacing:0px;word-spacing:0px;text-transform:none;writing-mode:lr-tb;direction:ltr;text-orientation:mixed;dominant-baseline:auto;baseline-shift:baseline;text-anchor:start;white-space:normal;shape-padding:0;fill:#14162c;fill-opacity:1;stroke:none;stroke-width:0.06353962;stroke-linecap:butt;stroke-linejoin:miter;stroke-miterlimit:4;stroke-dasharray:none;stroke-dashoffset:0;stroke-opacity:1"
         id="path1483"
         inkscape:connector-curvature="0" />
      <path
         d="m 21.904904,30.796518 -0.19567,0.127069 -0.429873,-0.661947 q -0.05204,-0.08014 -0.106698,-0.143792 -0.05533,-0.06469 -0.105991,-0.08802 -0.05441,-0.02682 -0.116843,-0.01587 -0.06311,0.0099 -0.141172,0.0606 -0.08014,0.05204 -0.141884,0.148371 -0.06174,0.09633 -0.102005,0.209777 l 0.563701,0.868025 -0.19567,0.127069 -1.051702,-1.61948 0.195669,-0.12707 0.380533,0.585969 q 0.04225,-0.135457 0.112372,-0.241665 0.07012,-0.106207 0.173163,-0.173122 0.188384,-0.122338 0.360933,-0.0731 0.172548,0.04923 0.311108,0.262599 z"
         style="font-style:normal;font-variant:normal;font-weight:normal;font-stretch:normal;font-size:medium;line-height:1.25;font-family:sans-serif;-inkscape-font-specification:sans-serif;font-variant-ligatures:normal;font-variant-position:normal;font-variant-caps:normal;font-variant-numeric:normal;font-variant-alternates:normal;font-feature-settings:normal;text-indent:0;text-align:start;text-decoration:none;text-decoration-line:none;text-decoration-style:solid;text-decoration-color:#000000;letter-spacing:0px;word-spacing:0px;text-transform:none;writing-mode:lr-tb;direction:ltr;text-orientation:mixed;dominant-baseline:auto;baseline-shift:baseline;text-anchor:start;white-space:normal;shape-padding:0;fill:#14162c;fill-opacity:1;stroke:none;stroke-width:0.06353962;stroke-linecap:butt;stroke-linejoin:miter;stroke-miterlimit:4;stroke-dasharray:none;stroke-dashoffset:0;stroke-opacity:1"
         id="path1485"
         inkscape:connector-curvature="0" />
      <path
         d="m 22.890507,29.358884 -0.856576,0.556267 q 0.06962,0.107202 0.153926,0.16639 0.08363,0.05815 0.172956,0.07265 0.08657,0.01481 0.176683,-0.0082 0.09116,-0.02368 0.180668,-0.08181 0.11865,-0.07705 0.207927,-0.201617 0.08964,-0.126282 0.1109,-0.205196 l 0.01041,-0.0068 0.13856,0.213364 q -0.07184,0.105842 -0.156629,0.200857 -0.08479,0.09502 -0.198237,0.168689 -0.289342,0.187901 -0.553091,0.137223 -0.264426,-0.05172 -0.45165,-0.340022 -0.185197,-0.285177 -0.138939,-0.553455 0.0473,-0.268954 0.301254,-0.433874 0.23522,-0.152754 0.451416,-0.09783 0.217238,0.05425 0.381481,0.307163 z m -0.287796,-0.02619 q -0.101074,-0.153363 -0.232841,-0.18765 -0.130726,-0.03496 -0.286846,0.06642 -0.15716,0.102061 -0.190677,0.255523 -0.03248,0.152787 0.04425,0.298282 z"
         style="font-style:normal;font-variant:normal;font-weight:normal;font-stretch:normal;font-size:medium;line-height:1.25;font-family:sans-serif;-inkscape-font-specification:sans-serif;font-variant-ligatures:normal;font-variant-position:normal;font-variant-caps:normal;font-variant-numeric:normal;font-variant-alternates:normal;font-feature-settings:normal;text-indent:0;text-align:start;text-decoration:none;text-decoration-line:none;text-decoration-style:solid;text-decoration-color:#000000;letter-spacing:0px;word-spacing:0px;text-transform:none;writing-mode:lr-tb;direction:ltr;text-orientation:mixed;dominant-baseline:auto;baseline-shift:baseline;text-anchor:start;white-space:normal;shape-padding:0;fill:#14162c;fill-opacity:1;stroke:none;stroke-width:0.06353962;stroke-linecap:butt;stroke-linejoin:miter;stroke-miterlimit:4;stroke-dasharray:none;stroke-dashoffset:0;stroke-opacity:1"
         id="path1487"
         inkscape:connector-curvature="0" />
      <path
         d="m 26.195065,28.015939 q -0.141661,0.223705 -0.336411,0.448958 -0.19417,0.222525 -0.417498,0.367557 -0.287846,0.186929 -0.579283,0.263297 -0.291438,0.07637 -0.563307,0.02714 -0.274599,-0.04981 -0.523013,-0.229522 -0.249488,-0.181363 -0.458977,-0.503948 -0.383526,-0.59058 -0.260743,-1.154818 0.123365,-0.566965 0.725523,-0.958012 0.210094,-0.136436 0.461763,-0.226962 0.252248,-0.09325 0.583777,-0.13686 l 0.252462,0.388757 -0.02978,0.01934 q -0.07707,-0.0064 -0.216566,-0.0075 -0.139501,-0.0011 -0.261727,0.01709 -0.147449,0.02284 -0.314512,0.0843 -0.166483,0.05873 -0.350108,0.177973 -0.413571,0.268576 -0.482133,0.691765 -0.06798,0.420457 0.226376,0.873731 0.310474,0.478088 0.734888,0.581133 0.423339,0.101392 0.856762,-0.180076 0.158811,-0.103133 0.295556,-0.236624 0.138399,-0.134564 0.225278,-0.261543 l -0.39212,-0.603812 -0.660059,0.428647 -0.186929,-0.287846 0.984297,-0.63921 z"
         style="font-style:normal;font-variant:normal;font-weight:normal;font-stretch:normal;font-size:medium;line-height:1.25;font-family:sans-serif;-inkscape-font-specification:sans-serif;font-variant-ligatures:normal;font-variant-position:normal;font-variant-caps:normal;font-variant-numeric:normal;font-variant-alternates:normal;font-feature-settings:normal;text-indent:0;text-align:start;text-decoration:none;text-decoration-line:none;text-decoration-style:solid;text-decoration-color:#000000;letter-spacing:0px;word-spacing:0px;text-transform:none;writing-mode:lr-tb;direction:ltr;text-orientation:mixed;dominant-baseline:auto;baseline-shift:baseline;text-anchor:start;white-space:normal;shape-padding:0;fill:#14162c;fill-opacity:1;stroke:none;stroke-width:0.10099229;stroke-linecap:butt;stroke-linejoin:miter;stroke-miterlimit:4;stroke-dasharray:none;stroke-dashoffset:0;stroke-opacity:1"
         id="path1489"
         inkscape:connector-curvature="0" />
    </g>
    <g
       id="g1557"
       transform="matrix(0.89608429,0,0,0.89138668,3.446176,1.3726709)">
      <path
         d="m 38.077324,20.020638 -0.327547,0.212712 -1.378331,-2.122444 0.252993,1.888951 -0.195204,0.126767 -1.617778,-1.002649 1.378331,2.122443 -0.306041,0.198746 -1.599639,-2.463227 0.446657,-0.290062 1.547347,0.944903 -0.255352,-1.783934 0.454926,-0.295433 z"
         style="font-style:normal;font-variant:normal;font-weight:normal;font-stretch:normal;font-size:medium;line-height:1.25;font-family:sans-serif;-inkscape-font-specification:sans-serif;font-variant-ligatures:normal;font-variant-position:normal;font-variant-caps:normal;font-variant-numeric:normal;font-variant-alternates:normal;font-feature-settings:normal;text-indent:0;text-align:start;text-decoration:none;text-decoration-line:none;text-decoration-style:solid;text-decoration-color:#000000;letter-spacing:0px;word-spacing:0px;text-transform:none;writing-mode:lr-tb;direction:ltr;text-orientation:mixed;dominant-baseline:auto;baseline-shift:baseline;text-anchor:start;white-space:normal;shape-padding:0;fill:#14162c;fill-opacity:1;stroke:none;stroke-width:0.10099229;stroke-linecap:butt;stroke-linejoin:miter;stroke-miterlimit:4;stroke-dasharray:none;stroke-dashoffset:0;stroke-opacity:1"
         id="path1491"
         inkscape:connector-curvature="0" />
      <path
         d="m 40.025227,17.008161 q 0.218084,0.33582 0.248113,0.704389 0.03169,0.367495 -0.113735,0.675959 -0.101057,0.213798 -0.279415,0.395481 -0.176705,0.180608 -0.515833,0.40084 l -0.62201,0.403938 -1.599639,-2.463227 0.615394,-0.399641 q 0.360634,-0.234199 0.606759,-0.318772 0.246706,-0.0873 0.453024,-0.09193 0.35351,-0.0061 0.663864,0.163924 0.310354,0.17006 0.543478,0.529039 z m -0.345656,0.217424 q -0.188004,-0.2895 -0.417832,-0.422482 -0.229827,-0.13298 -0.504123,-0.117135 -0.199292,0.01182 -0.383478,0.08675 -0.18526,0.07327 -0.413551,0.221524 l -0.307697,0.19982 1.234375,1.900771 0.307697,-0.199821 q 0.236563,-0.153626 0.389357,-0.302241 0.154447,-0.149691 0.240443,-0.339598 0.107351,-0.236703 0.07372,-0.487685 -0.03198,-0.252057 -0.218907,-0.539902 z"
         style="font-style:normal;font-variant:normal;font-weight:normal;font-stretch:normal;font-size:medium;line-height:1.25;font-family:sans-serif;-inkscape-font-specification:sans-serif;font-variant-ligatures:normal;font-variant-position:normal;font-variant-caps:normal;font-variant-numeric:normal;font-variant-alternates:normal;font-feature-settings:normal;text-indent:0;text-align:start;text-decoration:none;text-decoration-line:none;text-decoration-style:solid;text-decoration-color:#000000;letter-spacing:0px;word-spacing:0px;text-transform:none;writing-mode:lr-tb;direction:ltr;text-orientation:mixed;dominant-baseline:auto;baseline-shift:baseline;text-anchor:start;white-space:normal;shape-padding:0;fill:#14162c;fill-opacity:1;stroke:none;stroke-width:0.10099229;stroke-linecap:butt;stroke-linejoin:miter;stroke-miterlimit:4;stroke-dasharray:none;stroke-dashoffset:0;stroke-opacity:1"
         id="path1493"
         inkscape:connector-curvature="0" />
      <path
         d="m 43.142514,16.477256 q -0.0652,0.09879 -0.117086,0.181873 -0.05023,0.08201 -0.144626,0.197408 -0.0805,0.09696 -0.185642,0.195819 -0.102414,0.09944 -0.244682,0.191827 -0.267993,0.174037 -0.536358,0.242476 -0.267782,0.06571 -0.53411,0.01053 -0.26087,-0.05402 -0.507049,-0.237536 -0.247253,-0.185167 -0.455669,-0.506097 -0.197672,-0.304389 -0.267423,-0.600122 -0.06975,-0.295736 -0.01506,-0.566447 0.05295,-0.262522 0.219834,-0.490849 0.168538,-0.229398 0.439841,-0.405584 0.198513,-0.128916 0.426528,-0.208784 0.229669,-0.08094 0.549618,-0.117029 l 0.252462,0.388757 -0.02481,0.01611 q -0.31413,-0.03825 -0.56479,0.01399 -0.250661,0.05224 -0.478952,0.200494 -0.186934,0.121396 -0.297724,0.280365 -0.11021,0.156242 -0.144944,0.359897 -0.03357,0.198198 0.02546,0.430339 0.05961,0.229413 0.220753,0.477554 0.168665,0.259722 0.359541,0.401536 0.192532,0.140738 0.379645,0.186215 0.195297,0.04721 0.38782,0.0069 0.193104,-0.04309 0.365149,-0.154811 0.236563,-0.153626 0.390707,-0.368974 0.154145,-0.215348 0.229179,-0.494568 l 0.02316,-0.01504 z"
         style="font-style:normal;font-variant:normal;font-weight:normal;font-stretch:normal;font-size:medium;line-height:1.25;font-family:sans-serif;-inkscape-font-specification:sans-serif;font-variant-ligatures:normal;font-variant-position:normal;font-variant-caps:normal;font-variant-numeric:normal;font-variant-alternates:normal;font-feature-settings:normal;text-indent:0;text-align:start;text-decoration:none;text-decoration-line:none;text-decoration-style:solid;text-decoration-color:#000000;letter-spacing:0px;word-spacing:0px;text-transform:none;writing-mode:lr-tb;direction:ltr;text-orientation:mixed;dominant-baseline:auto;baseline-shift:baseline;text-anchor:start;white-space:normal;shape-padding:0;fill:#14162c;fill-opacity:1;stroke:none;stroke-width:0.10099229;stroke-linecap:butt;stroke-linejoin:miter;stroke-miterlimit:4;stroke-dasharray:none;stroke-dashoffset:0;stroke-opacity:1"
         id="path1495"
         inkscape:connector-curvature="0" />
    </g>
    <path
       inkscape:connector-curvature="0"
       id="path1450"
       style="font-style:normal;font-variant:normal;font-weight:normal;font-stretch:normal;font-size:medium;line-height:1.25;font-family:sans-serif;-inkscape-font-specification:sans-serif;font-variant-ligatures:normal;font-variant-position:normal;font-variant-caps:normal;font-variant-numeric:normal;font-variant-alternates:normal;font-feature-settings:normal;text-indent:0;text-align:start;text-decoration:none;text-decoration-line:none;text-decoration-style:solid;text-decoration-color:#000000;letter-spacing:0px;word-spacing:0px;text-transform:none;writing-mode:lr-tb;direction:ltr;text-orientation:mixed;dominant-baseline:auto;baseline-shift:baseline;text-anchor:start;white-space:normal;shape-padding:0;fill:#14162c;fill-opacity:1;stroke:none;stroke-width:0.13595721;stroke-linecap:butt;stroke-linejoin:miter;stroke-miterlimit:4;stroke-dasharray:none;stroke-dashoffset:0;stroke-opacity:1"
       d="m 33.46724,31.82219 h -2.683702 v -0.553523 q 0.279553,-0.238359 0.559106,-0.476721 0.282214,-0.238361 0.524494,-0.474073 0.511179,-0.492609 0.700212,-0.781292 0.189029,-0.291326 0.189029,-0.627679 0,-0.307219 -0.205005,-0.479368 -0.202343,-0.174806 -0.567092,-0.174806 -0.242278,0 -0.524494,0.08474 -0.282212,0.08474 -0.551116,0.259549 h -0.02662 v -0.556174 q 0.189031,-0.0927 0.503193,-0.169492 0.316826,-0.07681 0.612354,-0.07681 0.60969,0 0.955801,0.293977 0.346112,0.29133 0.346112,0.791884 0,0.225117 -0.05857,0.421103 -0.05592,0.193335 -0.167732,0.368133 -0.103838,0.164213 -0.244942,0.32311 -0.138437,0.158898 -0.338125,0.352245 -0.284877,0.278087 -0.58839,0.540283 -0.303514,0.259546 -0.567092,0.482015 h 2.13259 z" />
    <path
       inkscape:connector-curvature="0"
       id="path1452"
       style="font-style:normal;font-variant:normal;font-weight:normal;font-stretch:normal;font-size:medium;line-height:1.25;font-family:sans-serif;-inkscape-font-specification:sans-serif;font-variant-ligatures:normal;font-variant-position:normal;font-variant-caps:normal;font-variant-numeric:normal;font-variant-alternates:normal;font-feature-settings:normal;text-indent:0;text-align:start;text-decoration:none;text-decoration-line:none;text-decoration-style:solid;text-decoration-color:#000000;letter-spacing:0px;word-spacing:0px;text-transform:none;writing-mode:lr-tb;direction:ltr;text-orientation:mixed;dominant-baseline:auto;baseline-shift:baseline;text-anchor:start;white-space:normal;shape-padding:0;fill:#14162c;fill-opacity:1;stroke:none;stroke-width:0.13595721;stroke-linecap:butt;stroke-linejoin:miter;stroke-miterlimit:4;stroke-dasharray:none;stroke-dashoffset:0;stroke-opacity:1"
       d="m 36.933688,29.8491 q 0,1.062027 -0.335462,1.559934 -0.3328,0.495259 -1.035675,0.495259 -0.713523,0 -1.043663,-0.503204 -0.327474,-0.503206 -0.327474,-1.546692 0,-1.051433 0.332801,-1.551989 0.332799,-0.503204 1.038336,-0.503204 0.713524,0 1.040999,0.511149 0.330138,0.508502 0.330138,1.538747 z m -0.700212,1.202393 q 0.09319,-0.214523 0.125136,-0.503205 0.03462,-0.291327 0.03462,-0.699188 0,-0.402564 -0.03462,-0.699191 -0.03195,-0.296624 -0.127788,-0.503203 -0.09319,-0.203932 -0.255593,-0.307219 -0.159735,-0.103293 -0.412671,-0.103293 -0.250266,0 -0.415335,0.103293 -0.162408,0.103293 -0.258253,0.312516 -0.09051,0.195984 -0.125136,0.51115 -0.03195,0.315166 -0.03195,0.691244 0,0.413156 0.0293,0.691243 0.0293,0.278087 0.125135,0.497907 0.08786,0.206581 0.247603,0.315167 0.162408,0.10859 0.428647,0.10859 0.250266,0 0.415334,-0.103293 0.16506,-0.103293 0.255591,-0.312516 z" />
    <path
       inkscape:connector-curvature="0"
       id="path1454"
       style="font-style:normal;font-variant:normal;font-weight:normal;font-stretch:normal;font-size:medium;line-height:1.25;font-family:sans-serif;-inkscape-font-specification:sans-serif;font-variant-ligatures:normal;font-variant-position:normal;font-variant-caps:normal;font-variant-numeric:normal;font-variant-alternates:normal;font-feature-settings:normal;text-indent:0;text-align:start;text-decoration:none;text-decoration-line:none;text-decoration-style:solid;text-decoration-color:#000000;letter-spacing:0px;word-spacing:0px;text-transform:none;writing-mode:lr-tb;direction:ltr;text-orientation:mixed;dominant-baseline:auto;baseline-shift:baseline;text-anchor:start;white-space:normal;shape-padding:0;fill:#14162c;fill-opacity:1;stroke:none;stroke-width:0.13595721;stroke-linecap:butt;stroke-linejoin:miter;stroke-miterlimit:4;stroke-dasharray:none;stroke-dashoffset:0;stroke-opacity:1"
       d="m 40.410785,31.82219 h -2.683701 v -0.553523 q 0.279551,-0.238359 0.559103,-0.476721 0.282215,-0.238361 0.524494,-0.474073 0.51118,-0.492609 0.700212,-0.781292 0.189031,-0.291326 0.189031,-0.627679 0,-0.307219 -0.205006,-0.479368 -0.202341,-0.174806 -0.567092,-0.174806 -0.242277,0 -0.524493,0.08474 -0.282214,0.08474 -0.551117,0.259549 h -0.02662 v -0.556174 q 0.189032,-0.0927 0.503193,-0.169492 0.316826,-0.07681 0.612355,-0.07681 0.609689,0 0.955802,0.293977 0.346111,0.29133 0.346111,0.791884 0,0.225117 -0.05857,0.421103 -0.05591,0.193335 -0.167732,0.368133 -0.103838,0.164213 -0.244941,0.32311 -0.138438,0.158898 -0.338124,0.352245 -0.28488,0.278087 -0.588392,0.540283 -0.303514,0.259546 -0.567091,0.482015 h 2.132584 z" />
    <path
       inkscape:connector-curvature="0"
       id="path1456"
       style="font-style:normal;font-variant:normal;font-weight:normal;font-stretch:normal;font-size:medium;line-height:1.25;font-family:sans-serif;-inkscape-font-specification:sans-serif;font-variant-ligatures:normal;font-variant-position:normal;font-variant-caps:normal;font-variant-numeric:normal;font-variant-alternates:normal;font-feature-settings:normal;text-indent:0;text-align:start;text-decoration:none;text-decoration-line:none;text-decoration-style:solid;text-decoration-color:#000000;letter-spacing:0px;word-spacing:0px;text-transform:none;writing-mode:lr-tb;direction:ltr;text-orientation:mixed;dominant-baseline:auto;baseline-shift:baseline;text-anchor:start;white-space:normal;shape-padding:0;fill:#14162c;fill-opacity:1;stroke:none;stroke-width:0.13595721;stroke-linecap:butt;stroke-linejoin:miter;stroke-miterlimit:4;stroke-dasharray:none;stroke-dashoffset:0;stroke-opacity:1"
       d="m 43.877233,29.8491 q 0,1.062027 -0.335463,1.559934 -0.3328,0.495259 -1.035675,0.495259 -0.713523,0 -1.04366,-0.503204 -0.327476,-0.503206 -0.327476,-1.546692 0,-1.051433 0.3328,-1.551989 0.332799,-0.503204 1.038336,-0.503204 0.713524,0 1.040999,0.511149 0.330139,0.508502 0.330139,1.538747 z m -0.700212,1.202393 q 0.09318,-0.214523 0.125136,-0.503205 0.03462,-0.291327 0.03462,-0.699188 0,-0.402564 -0.03462,-0.699191 -0.03195,-0.296624 -0.12779,-0.503203 -0.09318,-0.203932 -0.255589,-0.307219 -0.159736,-0.103293 -0.412674,-0.103293 -0.250265,0 -0.415335,0.103293 -0.162407,0.103293 -0.258252,0.312516 -0.09051,0.195984 -0.125136,0.51115 -0.03195,0.315166 -0.03195,0.691244 0,0.413156 0.0293,0.691243 0.02928,0.278087 0.125136,0.497907 0.08786,0.206581 0.247604,0.315167 0.162407,0.10859 0.428646,0.10859 0.250266,0 0.415336,-0.103293 0.165061,-0.103293 0.25559,-0.312516 z" />
    <g
       id="g1526"
       transform="matrix(0.77759472,0,0,0.77351827,15.224471,4.8621538)">
      <path
         d="m 39.93172,31.325677 q 0,0.129202 -0.06089,0.255433 -0.0594,0.126232 -0.167813,0.213851 -0.118806,0.09504 -0.277709,0.148507 -0.157418,0.05346 -0.380179,0.05346 -0.239097,0 -0.430672,-0.04455 -0.19009,-0.04455 -0.387604,-0.132172 v -0.368299 h 0.02079 q 0.167812,0.139598 0.387604,0.215336 0.219791,0.07574 0.412851,0.07574 0.273253,0 0.424731,-0.102471 0.152963,-0.102469 0.152963,-0.273254 0,-0.147022 -0.07277,-0.21682 -0.07128,-0.0698 -0.218306,-0.10841 -0.111382,-0.0297 -0.242069,-0.04901 -0.1292,-0.01931 -0.274738,-0.04901 -0.294045,-0.06237 -0.436611,-0.212365 -0.141083,-0.151478 -0.141083,-0.393546 0,-0.277709 0.234641,-0.454432 0.234643,-0.178209 0.595516,-0.178209 0.233157,0 0.427701,0.04455 0.194545,0.04455 0.344538,0.109895 v 0.347508 h -0.02079 q -0.126232,-0.106926 -0.332657,-0.176725 -0.204941,-0.07128 -0.420276,-0.07128 -0.236127,0 -0.380179,0.09802 -0.142568,0.09801 -0.142568,0.252462 0,0.138112 0.07128,0.216821 0.07128,0.07871 0.250978,0.120291 0.09504,0.02079 0.270283,0.05049 0.175239,0.0297 0.297015,0.06089 0.246522,0.06534 0.371269,0.197514 0.124746,0.132172 0.124746,0.369784 z"
         style="font-style:normal;font-variant:normal;font-weight:normal;font-stretch:normal;font-size:medium;line-height:1.25;font-family:sans-serif;-inkscape-font-specification:sans-serif;font-variant-ligatures:normal;font-variant-position:normal;font-variant-caps:normal;font-variant-numeric:normal;font-variant-alternates:normal;font-feature-settings:normal;text-indent:0;text-align:start;text-decoration:none;text-decoration-line:none;text-decoration-style:solid;text-decoration-color:#000000;letter-spacing:0px;word-spacing:0px;text-transform:none;writing-mode:lr-tb;direction:ltr;text-orientation:mixed;dominant-baseline:auto;baseline-shift:baseline;text-anchor:start;white-space:normal;shape-padding:0;fill:#14162c;fill-opacity:1;stroke:none;stroke-width:0.07603583;stroke-linecap:butt;stroke-linejoin:miter;stroke-miterlimit:4;stroke-dasharray:none;stroke-dashoffset:0;stroke-opacity:1"
         id="path1460"
         inkscape:connector-curvature="0" />
      <path
         d="m 41.795488,31.128163 q 0,0.405425 -0.20791,0.640067 -0.207911,0.234642 -0.556903,0.234642 -0.351963,0 -0.559873,-0.234642 -0.206426,-0.234642 -0.206426,-0.640067 0,-0.405426 0.206426,-0.640067 0.20791,-0.236128 0.559873,-0.236128 0.348992,0 0.556903,0.236128 0.20791,0.234641 0.20791,0.640067 z m -0.288104,0 q 0,-0.322262 -0.126232,-0.478195 -0.126231,-0.157418 -0.350477,-0.157418 -0.227217,0 -0.353448,0.157418 -0.124746,0.155933 -0.124746,0.478195 0,0.311865 0.126231,0.473739 0.126231,0.160387 0.351963,0.160387 0.222762,0 0.348992,-0.158903 0.127717,-0.160387 0.127717,-0.475223 z"
         style="font-style:normal;font-variant:normal;font-weight:normal;font-stretch:normal;font-size:medium;line-height:1.25;font-family:sans-serif;-inkscape-font-specification:sans-serif;font-variant-ligatures:normal;font-variant-position:normal;font-variant-caps:normal;font-variant-numeric:normal;font-variant-alternates:normal;font-feature-settings:normal;text-indent:0;text-align:start;text-decoration:none;text-decoration-line:none;text-decoration-style:solid;text-decoration-color:#000000;letter-spacing:0px;word-spacing:0px;text-transform:none;writing-mode:lr-tb;direction:ltr;text-orientation:mixed;dominant-baseline:auto;baseline-shift:baseline;text-anchor:start;white-space:normal;shape-padding:0;fill:#14162c;fill-opacity:1;stroke:none;stroke-width:0.07603583;stroke-linecap:butt;stroke-linejoin:miter;stroke-miterlimit:4;stroke-dasharray:none;stroke-dashoffset:0;stroke-opacity:1"
         id="path1462"
         inkscape:connector-curvature="0" />
      <path
         d="m 43.604309,31.956834 h -0.279194 v -0.184149 q -0.141082,0.11138 -0.270283,0.170783 -0.129202,0.0594 -0.285135,0.0594 -0.261373,0 -0.406911,-0.158903 -0.145537,-0.160388 -0.145537,-0.469284 v -1.076679 h 0.279194 v 0.944507 q 0,0.126232 0.01188,0.216821 0.01188,0.0891 0.05049,0.152963 0.0401,0.06534 0.103954,0.09504 0.06386,0.0297 0.185635,0.0297 0.108411,0 0.236126,-0.05643 0.129202,-0.05643 0.240583,-0.144052 v -1.238552 h 0.279194 z"
         style="font-style:normal;font-variant:normal;font-weight:normal;font-stretch:normal;font-size:medium;line-height:1.25;font-family:sans-serif;-inkscape-font-specification:sans-serif;font-variant-ligatures:normal;font-variant-position:normal;font-variant-caps:normal;font-variant-numeric:normal;font-variant-alternates:normal;font-feature-settings:normal;text-indent:0;text-align:start;text-decoration:none;text-decoration-line:none;text-decoration-style:solid;text-decoration-color:#000000;letter-spacing:0px;word-spacing:0px;text-transform:none;writing-mode:lr-tb;direction:ltr;text-orientation:mixed;dominant-baseline:auto;baseline-shift:baseline;text-anchor:start;white-space:normal;shape-padding:0;fill:#14162c;fill-opacity:1;stroke:none;stroke-width:0.07603583;stroke-linecap:butt;stroke-linejoin:miter;stroke-miterlimit:4;stroke-dasharray:none;stroke-dashoffset:0;stroke-opacity:1"
         id="path1464"
         inkscape:connector-curvature="0" />
      <path
         d="m 45.015131,31.941984 q -0.07871,0.02079 -0.172269,0.03416 -0.09207,0.01337 -0.164843,0.01337 -0.253948,0 -0.386119,-0.136626 -0.132171,-0.136628 -0.132171,-0.438099 v -0.882134 h -0.188605 v -0.234641 h 0.188605 v -0.476709 h 0.279194 v 0.476709 h 0.576208 v 0.234641 h -0.576208 v 0.755904 q 0,0.130687 0.0059,0.20494 0.0059,0.07277 0.04158,0.136627 0.03267,0.0594 0.0891,0.08762 0.05792,0.02673 0.175238,0.02673 0.06831,0 0.142568,-0.01931 0.07425,-0.02079 0.106925,-0.03416 h 0.01485 z"
         style="font-style:normal;font-variant:normal;font-weight:normal;font-stretch:normal;font-size:medium;line-height:1.25;font-family:sans-serif;-inkscape-font-specification:sans-serif;font-variant-ligatures:normal;font-variant-position:normal;font-variant-caps:normal;font-variant-numeric:normal;font-variant-alternates:normal;font-feature-settings:normal;text-indent:0;text-align:start;text-decoration:none;text-decoration-line:none;text-decoration-style:solid;text-decoration-color:#000000;letter-spacing:0px;word-spacing:0px;text-transform:none;writing-mode:lr-tb;direction:ltr;text-orientation:mixed;dominant-baseline:auto;baseline-shift:baseline;text-anchor:start;white-space:normal;shape-padding:0;fill:#14162c;fill-opacity:1;stroke:none;stroke-width:0.07603583;stroke-linecap:butt;stroke-linejoin:miter;stroke-miterlimit:4;stroke-dasharray:none;stroke-dashoffset:0;stroke-opacity:1"
         id="path1466"
         inkscape:connector-curvature="0" />
      <path
         d="m 46.740787,31.956834 h -0.279194 v -0.944507 q 0,-0.114351 -0.01337,-0.213852 -0.01337,-0.100984 -0.04901,-0.157417 -0.03713,-0.06237 -0.106926,-0.09207 -0.0698,-0.03119 -0.181179,-0.03119 -0.11435,0 -0.239097,0.05643 -0.124746,0.05643 -0.239096,0.144052 v 1.238552 h -0.279194 v -2.310776 h 0.279194 v 0.836097 q 0.130685,-0.108411 0.270283,-0.169299 0.139597,-0.06089 0.28662,-0.06089 0.268798,0 0.40988,0.161874 0.141082,0.161873 0.141082,0.466313 z"
         style="font-style:normal;font-variant:normal;font-weight:normal;font-stretch:normal;font-size:medium;line-height:1.25;font-family:sans-serif;-inkscape-font-specification:sans-serif;font-variant-ligatures:normal;font-variant-position:normal;font-variant-caps:normal;font-variant-numeric:normal;font-variant-alternates:normal;font-feature-settings:normal;text-indent:0;text-align:start;text-decoration:none;text-decoration-line:none;text-decoration-style:solid;text-decoration-color:#000000;letter-spacing:0px;word-spacing:0px;text-transform:none;writing-mode:lr-tb;direction:ltr;text-orientation:mixed;dominant-baseline:auto;baseline-shift:baseline;text-anchor:start;white-space:normal;shape-padding:0;fill:#14162c;fill-opacity:1;stroke:none;stroke-width:0.07603583;stroke-linecap:butt;stroke-linejoin:miter;stroke-miterlimit:4;stroke-dasharray:none;stroke-dashoffset:0;stroke-opacity:1"
         id="path1468"
         inkscape:connector-curvature="0" />
      <path
         d="m 50.113393,31.956834 h -0.313351 l -0.216821,-0.616306 h -0.956388 l -0.216821,0.616306 h -0.298499 l 0.804909,-2.211276 h 0.392061 z m -0.620761,-0.868769 -0.387605,-1.085589 -0.389089,1.085589 z"
         style="font-style:normal;font-variant:normal;font-weight:normal;font-stretch:normal;font-size:medium;line-height:1.25;font-family:sans-serif;-inkscape-font-specification:sans-serif;font-variant-ligatures:normal;font-variant-position:normal;font-variant-caps:normal;font-variant-numeric:normal;font-variant-alternates:normal;font-feature-settings:normal;text-indent:0;text-align:start;text-decoration:none;text-decoration-line:none;text-decoration-style:solid;text-decoration-color:#000000;letter-spacing:0px;word-spacing:0px;text-transform:none;writing-mode:lr-tb;direction:ltr;text-orientation:mixed;dominant-baseline:auto;baseline-shift:baseline;text-anchor:start;white-space:normal;shape-padding:0;fill:#14162c;fill-opacity:1;stroke:none;stroke-width:0.07603583;stroke-linecap:butt;stroke-linejoin:miter;stroke-miterlimit:4;stroke-dasharray:none;stroke-dashoffset:0;stroke-opacity:1"
         id="path1470"
         inkscape:connector-curvature="0" />
      <path
         d="m 51.319272,29.916341 h -0.01485 q -0.04604,-0.01337 -0.120291,-0.02673 -0.07425,-0.01485 -0.130686,-0.01485 -0.179694,0 -0.261374,0.08019 -0.08019,0.07871 -0.08019,0.286618 v 0.05643 h 0.503441 v 0.234641 h -0.49453 v 1.424187 H 50.441598 V 30.53264 h -0.188605 v -0.234641 h 0.188605 v -0.05495 q 0,-0.295529 0.147022,-0.452947 0.147022,-0.158903 0.424731,-0.158903 0.09356,0 0.167814,0.0089 0.07574,0.0089 0.138112,0.02079 z"
         style="font-style:normal;font-variant:normal;font-weight:normal;font-stretch:normal;font-size:medium;line-height:1.25;font-family:sans-serif;-inkscape-font-specification:sans-serif;font-variant-ligatures:normal;font-variant-position:normal;font-variant-caps:normal;font-variant-numeric:normal;font-variant-alternates:normal;font-feature-settings:normal;text-indent:0;text-align:start;text-decoration:none;text-decoration-line:none;text-decoration-style:solid;text-decoration-color:#000000;letter-spacing:0px;word-spacing:0px;text-transform:none;writing-mode:lr-tb;direction:ltr;text-orientation:mixed;dominant-baseline:auto;baseline-shift:baseline;text-anchor:start;white-space:normal;shape-padding:0;fill:#14162c;fill-opacity:1;stroke:none;stroke-width:0.07603583;stroke-linecap:butt;stroke-linejoin:miter;stroke-miterlimit:4;stroke-dasharray:none;stroke-dashoffset:0;stroke-opacity:1"
         id="path1472"
         inkscape:connector-curvature="0" />
      <path
         d="m 52.531093,30.602446 h -0.01485 q -0.06237,-0.01485 -0.121776,-0.02079 -0.05792,-0.0074 -0.138112,-0.0074 -0.129202,0 -0.249493,0.05792 -0.120291,0.05643 -0.231671,0.147023 v 1.177663 h -0.279194 v -1.658828 h 0.279194 v 0.245037 q 0.166328,-0.133657 0.292559,-0.188604 0.127717,-0.05643 0.259889,-0.05643 0.07277,0 0.105439,0.0045 0.03267,0.003 0.09801,0.01337 z"
         style="font-style:normal;font-variant:normal;font-weight:normal;font-stretch:normal;font-size:medium;line-height:1.25;font-family:sans-serif;-inkscape-font-specification:sans-serif;font-variant-ligatures:normal;font-variant-position:normal;font-variant-caps:normal;font-variant-numeric:normal;font-variant-alternates:normal;font-feature-settings:normal;text-indent:0;text-align:start;text-decoration:none;text-decoration-line:none;text-decoration-style:solid;text-decoration-color:#000000;letter-spacing:0px;word-spacing:0px;text-transform:none;writing-mode:lr-tb;direction:ltr;text-orientation:mixed;dominant-baseline:auto;baseline-shift:baseline;text-anchor:start;white-space:normal;shape-padding:0;fill:#14162c;fill-opacity:1;stroke:none;stroke-width:0.07603583;stroke-linecap:butt;stroke-linejoin:miter;stroke-miterlimit:4;stroke-dasharray:none;stroke-dashoffset:0;stroke-opacity:1"
         id="path1474"
         inkscape:connector-curvature="0" />
      <path
         d="m 53.096907,30.020297 h -0.314836 v -0.28959 h 0.314836 z m -0.01782,1.936537 h -0.279196 v -1.658828 h 0.279196 z"
         style="font-style:normal;font-variant:normal;font-weight:normal;font-stretch:normal;font-size:medium;line-height:1.25;font-family:sans-serif;-inkscape-font-specification:sans-serif;font-variant-ligatures:normal;font-variant-position:normal;font-variant-caps:normal;font-variant-numeric:normal;font-variant-alternates:normal;font-feature-settings:normal;text-indent:0;text-align:start;text-decoration:none;text-decoration-line:none;text-decoration-style:solid;text-decoration-color:#000000;letter-spacing:0px;word-spacing:0px;text-transform:none;writing-mode:lr-tb;direction:ltr;text-orientation:mixed;dominant-baseline:auto;baseline-shift:baseline;text-anchor:start;white-space:normal;shape-padding:0;fill:#14162c;fill-opacity:1;stroke:none;stroke-width:0.07603583;stroke-linecap:butt;stroke-linejoin:miter;stroke-miterlimit:4;stroke-dasharray:none;stroke-dashoffset:0;stroke-opacity:1"
         id="path1476"
         inkscape:connector-curvature="0" />
      <path
         d="m 54.861177,31.85288 q -0.139596,0.06683 -0.265828,0.103954 -0.124746,0.03713 -0.265829,0.03713 -0.179694,0 -0.329686,-0.05198 -0.149993,-0.05346 -0.256918,-0.160388 -0.10841,-0.106926 -0.167813,-0.270285 -0.0594,-0.163357 -0.0594,-0.381663 0,-0.406911 0.22276,-0.638582 0.224247,-0.231672 0.59106,-0.231672 0.142568,0 0.279194,0.0401 0.138113,0.0401 0.252463,0.09801 v 0.310382 h -0.01485 q -0.127717,-0.0995 -0.264344,-0.152964 -0.135141,-0.05346 -0.264343,-0.05346 -0.237613,0 -0.375724,0.160388 -0.136627,0.158903 -0.136627,0.467799 0,0.299985 0.133657,0.461858 0.135142,0.160388 0.378694,0.160388 0.08465,0 0.172268,-0.02228 0.08762,-0.02228 0.157418,-0.05792 0.06089,-0.03119 0.114351,-0.06534 0.05346,-0.03564 0.08465,-0.06089 h 0.01485 z"
         style="font-style:normal;font-variant:normal;font-weight:normal;font-stretch:normal;font-size:medium;line-height:1.25;font-family:sans-serif;-inkscape-font-specification:sans-serif;font-variant-ligatures:normal;font-variant-position:normal;font-variant-caps:normal;font-variant-numeric:normal;font-variant-alternates:normal;font-feature-settings:normal;text-indent:0;text-align:start;text-decoration:none;text-decoration-line:none;text-decoration-style:solid;text-decoration-color:#000000;letter-spacing:0px;word-spacing:0px;text-transform:none;writing-mode:lr-tb;direction:ltr;text-orientation:mixed;dominant-baseline:auto;baseline-shift:baseline;text-anchor:start;white-space:normal;shape-padding:0;fill:#14162c;fill-opacity:1;stroke:none;stroke-width:0.07603583;stroke-linecap:butt;stroke-linejoin:miter;stroke-miterlimit:4;stroke-dasharray:none;stroke-dashoffset:0;stroke-opacity:1"
         id="path1478"
         inkscape:connector-curvature="0" />
      <path
         d="m 56.509608,31.956834 h -0.277709 v -0.176723 q -0.03713,0.02525 -0.100984,0.07128 -0.06237,0.04455 -0.121776,0.07128 -0.0698,0.03416 -0.160388,0.05643 -0.09059,0.02376 -0.212366,0.02376 -0.224247,0 -0.380179,-0.148508 -0.155933,-0.148508 -0.155933,-0.378694 0,-0.188604 0.08019,-0.304441 0.08168,-0.11732 0.231672,-0.184149 0.151478,-0.06683 0.363844,-0.09059 0.212365,-0.02376 0.455917,-0.03564 v -0.04307 q 0,-0.09505 -0.03416,-0.157418 -0.03267,-0.06237 -0.09504,-0.09802 -0.0594,-0.03416 -0.142568,-0.04604 -0.08316,-0.01188 -0.173754,-0.01188 -0.109896,0 -0.245037,0.0297 -0.135142,0.02822 -0.279194,0.08316 h -0.01485 v -0.283647 q 0.08168,-0.02228 0.236127,-0.04901 0.154448,-0.02673 0.304441,-0.02673 0.175238,0 0.30444,0.0297 0.130687,0.02822 0.225731,0.09802 0.09356,0.06831 0.142567,0.176724 0.04901,0.108411 0.04901,0.268798 z M 56.231899,31.548438 V 31.08658 q -0.127715,0.0074 -0.30147,0.02228 -0.172268,0.01485 -0.273253,0.04307 -0.120291,0.03416 -0.194545,0.106925 -0.07425,0.07128 -0.07425,0.197515 0,0.142568 0.08613,0.215336 0.08613,0.07128 0.262857,0.07128 0.147024,0 0.2688,-0.05643 0.121776,-0.05792 0.22573,-0.138113 z"
         style="font-style:normal;font-variant:normal;font-weight:normal;font-stretch:normal;font-size:medium;line-height:1.25;font-family:sans-serif;-inkscape-font-specification:sans-serif;font-variant-ligatures:normal;font-variant-position:normal;font-variant-caps:normal;font-variant-numeric:normal;font-variant-alternates:normal;font-feature-settings:normal;text-indent:0;text-align:start;text-decoration:none;text-decoration-line:none;text-decoration-style:solid;text-decoration-color:#000000;letter-spacing:0px;word-spacing:0px;text-transform:none;writing-mode:lr-tb;direction:ltr;text-orientation:mixed;dominant-baseline:auto;baseline-shift:baseline;text-anchor:start;white-space:normal;shape-padding:0;fill:#14162c;fill-opacity:1;stroke:none;stroke-width:0.07603583;stroke-linecap:butt;stroke-linejoin:miter;stroke-miterlimit:4;stroke-dasharray:none;stroke-dashoffset:0;stroke-opacity:1"
         id="path1480"
         inkscape:connector-curvature="0" />
    </g>
    <flowRoot
       xml:space="preserve"
       id="flowRoot903"
       style="font-style:normal;font-variant:normal;font-weight:normal;font-stretch:normal;font-size:24.1893959px;line-height:1.25;font-family:sans-serif;-inkscape-font-specification:sans-serif;font-variant-ligatures:normal;font-variant-position:normal;font-variant-caps:normal;font-variant-numeric:normal;font-variant-alternates:normal;font-feature-settings:normal;text-indent:0;text-align:start;text-decoration:none;text-decoration-line:none;text-decoration-style:solid;text-decoration-color:#000000;letter-spacing:0px;word-spacing:0px;text-transform:none;writing-mode:lr-tb;direction:ltr;text-orientation:mixed;dominant-baseline:auto;baseline-shift:baseline;text-anchor:start;white-space:normal;shape-padding:0;opacity:1;vector-effect:none;fill:#ffffdf;fill-opacity:1;stroke:none;stroke-width:0.6047349;stroke-linecap:butt;stroke-linejoin:miter;stroke-miterlimit:4;stroke-dasharray:none;stroke-dashoffset:0;stroke-opacity:1"
       transform="matrix(0.2648266,0,0,0.26343827,-0.01736922,0.13807439)"><flowRegion
         id="flowRegion905"
         style="fill:#ffffdf;fill-opacity:1"><rect
           id="rect907"
           width="603.25049"
           height="227.59999"
           x="-307.14951"
           y="-176.78903"
           style="fill:#ffffdf;fill-opacity:1" /></flowRegion><flowPara
         id="flowPara909" /></flowRoot>    <g
       aria-label="athArt Competition "
       transform="matrix(0.40225681,0,0,0.40014802,17.536222,-32.114723)"
       style="font-style:normal;font-variant:normal;font-weight:normal;font-stretch:normal;font-size:24.1893959px;line-height:1.25;font-family:sans-serif;-inkscape-font-specification:sans-serif;font-variant-ligatures:normal;font-variant-position:normal;font-variant-caps:normal;font-variant-numeric:normal;font-variant-alternates:normal;font-feature-settings:normal;text-indent:0;text-align:start;text-decoration:none;text-decoration-line:none;text-decoration-style:solid;text-decoration-color:#000000;letter-spacing:0px;word-spacing:0px;text-transform:none;writing-mode:lr-tb;direction:ltr;text-orientation:mixed;dominant-baseline:auto;baseline-shift:baseline;text-anchor:start;white-space:normal;shape-padding:0;opacity:1;vector-effect:none;fill:#14162c;fill-opacity:1;stroke:none;stroke-width:0.6047349;stroke-linecap:butt;stroke-linejoin:miter;stroke-miterlimit:4;stroke-dasharray:none;stroke-dashoffset:0;stroke-opacity:1"
       id="flowRoot815-6">
      <path
         d="m 41.927916,143.74876 q 0,0.24803 -1.724439,2.29138 -1.393725,1.67719 -2.196888,1.67719 -0.543317,0 -0.885843,-0.40158 -0.342525,-0.41339 -0.342525,-1.02758 0,-0.6378 0.377959,-1.38191 -1.181123,1.65357 -1.807118,2.23232 -0.625995,0.57875 -1.216556,0.57875 -0.625995,0 -1.0512,-0.5315 -0.425204,-0.54332 -0.425204,-1.3583 0,-2.26775 3.200843,-4.01581 1.405536,-0.77954 2.267756,-0.77954 0.732296,0 0.732296,0.70867 0,0.20079 -0.09449,0.5315 l 0.602373,-1.14568 q 0.354337,0.0827 0.625995,0.0827 0.318903,0 0.826786,-0.0827 l -2.090587,3.46069 q -1.086633,1.81892 -1.086633,2.39767 0,0.55513 0.460637,0.55513 0.47245,0 1.511838,-1.07482 1.039388,-1.08663 2.11421,-2.66934 0.07087,-0.11811 0.129923,-0.11811 0.07087,0 0.07087,0.0709 z m -3.248087,-1.96067 q 0,-0.57875 -0.531506,-0.57875 -1.086633,0 -2.858317,2.12602 -1.759873,2.12603 -1.759873,3.43707 0,0.76773 0.685051,0.76773 0.814975,0 2.822884,-2.70477 1.641761,-2.22051 1.641761,-3.0473 z"
         style="font-style:normal;font-variant:normal;font-weight:normal;font-stretch:normal;line-height:0.25;font-family:'Edwardian Script ITC';-inkscape-font-specification:'Edwardian Script ITC';fill:#14162c;fill-opacity:1"
         id="path1415"
         inkscape:connector-curvature="0" />
      <path
         d="m 46.298071,141.03218 -0.09449,0.17716 H 44.65631 l -2.633904,4.50008 q -0.48426,0.81498 -0.48426,1.29924 0,0.5315 0.555127,0.5315 1.074822,0 3.626047,-3.74416 0.08268,-0.11811 0.141735,-0.11811 0.07087,0 0.07087,0.0709 -0.01181,0.0354 -0.118113,0.18898 l -0.507883,0.69686 q -2.22051,3.08273 -3.342577,3.08273 -0.555128,0 -0.933087,-0.40158 -0.366148,-0.40158 -0.366148,-1.00396 0,-0.70867 0.625995,-1.77168 l 1.984286,-3.33077 h -1.204745 l 0.118112,-0.17716 h 1.181123 L 44.7508,138.7408 q 0.354337,0.0945 0.67324,0.0945 0.330714,0 0.685051,-0.0945 l -1.358291,2.29138 z"
         style="font-style:normal;font-variant:normal;font-weight:normal;font-stretch:normal;line-height:0.25;font-family:'Edwardian Script ITC';-inkscape-font-specification:'Edwardian Script ITC';fill:#14162c;fill-opacity:1"
         id="path1417"
         inkscape:connector-curvature="0" />
      <path
         d="m 53.50292,143.72514 q 0,0.0945 -0.118112,0.2126 l -0.507883,0.69686 q -2.220511,3.08273 -3.307144,3.08273 -0.566939,0 -0.933087,-0.40158 -0.354337,-0.41339 -0.354337,-1.02758 0,-0.82678 0.897653,-2.16145 1.405537,-2.06697 1.405537,-2.45674 0,-0.46064 -0.484261,-0.46064 -0.708674,0 -1.937041,1.39373 -1.181123,1.33467 -3.248088,5.0552 -0.354337,-0.0709 -0.602373,-0.0709 -0.259847,0 -0.696862,0.0709 l 1.73625,-3.14178 q 0.354337,-0.67324 1.086633,-1.98429 0.389771,-0.63781 2.39768,-4.06306 l 1.795306,-3.0473 q 0.354337,0.0709 0.602373,0.0709 0.472449,0 0.897653,-0.11811 -1.228367,1.97247 -3.66148,5.90561 -0.07087,0.11811 -1.830741,3.0473 2.220511,-3.29533 3.507935,-3.29533 0.507883,0 0.86222,0.43701 0.366148,0.43702 0.366148,1.06301 0,0.81498 -1.039388,2.35044 -1.157501,1.71262 -1.157501,2.14964 0,0.50788 0.507883,0.50788 0.921276,0 3.047297,-2.97643 l 0.366148,-0.50788 0.212602,-0.25985 q 0.05906,-0.11811 0.141735,-0.11811 0.04725,0 0.04725,0.0473 z"
         style="font-style:normal;font-variant:normal;font-weight:normal;font-stretch:normal;line-height:0.25;font-family:'Edwardian Script ITC';-inkscape-font-specification:'Edwardian Script ITC';fill:#14162c;fill-opacity:1"
         id="path1419"
         inkscape:connector-curvature="0" />
      <path
         d="m 72.412697,135.44546 q 0,0.12993 -0.437016,0.626 -1.204745,1.38191 -2.279567,1.38191 -0.685051,0 -1.122067,-0.47245 -0.425204,-0.48426 -0.425204,-1.2638 0,-0.66143 0.779541,-2.13783 0.366148,-0.68505 0.366148,-1.13388 0,-0.59056 -0.661429,-1.00395 -0.649617,-0.42521 -1.594515,-0.42521 -2.704772,0 -5.019773,2.07878 -2.303189,2.07878 -2.303189,4.50008 0,1.22837 0.76773,2.00791 0.779541,0.77954 2.007909,0.77954 1.334668,0 2.681148,-0.96852 1.358292,-0.98033 1.913419,-2.35044 0.03543,-0.11811 0.09449,-0.11811 0.106301,0 0.106301,0.11811 0,0.24804 -0.413393,0.88584 -0.413393,0.626 -0.850408,1.0512 -1.594516,1.5709 -3.578802,1.5709 -1.34648,0 -2.161455,-0.82679 -0.814975,-0.82678 -0.814975,-2.19689 0,-2.49217 2.39768,-4.61819 2.40949,-2.12602 5.220562,-2.12602 1.240179,0 1.937042,0.61419 0.708674,0.61418 0.708674,1.689 0,0.80316 -0.566939,1.90161 -0.507883,1.00395 -0.507883,1.35829 0,0.87403 1.039388,0.87403 1.181123,0 2.444924,-1.74806 0.106301,-0.14174 0.177169,-0.14174 0.09449,0 0.09449,0.0945 z m 12.649825,-2.14964 q 0,0.2126 -0.248036,0.2126 -0.106301,0 -0.791352,-0.14173 -1.263801,-0.25985 -2.102399,-0.25985 -1.901607,0.57875 -3.3662,2.24413 -1.452781,1.66539 -3.318955,5.39774 -2.858317,5.72844 -7.322962,6.76783 0.933088,0.14173 1.618139,0.14173 2.173266,0 3.649669,-1.39372 1.429159,-1.34648 2.374057,-2.85832 0.106301,-0.16535 0.165358,-0.16535 0.07087,0 0.08268,0.0472 0,0.17717 -1.358291,1.83074 -1.263802,1.54727 -2.30319,2.13783 -1.039388,0.57875 -2.539414,0.57875 -0.86222,0 -2.102399,-0.24803 -0.755918,0.24803 -1.73625,0.24803 -0.685051,0 -0.685051,-0.24803 0,-0.28347 0.921275,-0.28347 0.649618,0 1.500026,0.11811 1.830741,-0.43702 2.763828,-1.44097 0.944898,-1.00395 3.626047,-5.43317 h -4.547323 q -2.893751,3.0473 -4.476455,4.33473 -3.696915,3.00005 -6.968625,3.00005 -1.866174,0 -3.177221,-0.87403 -1.299235,-0.87403 -1.299235,-2.12602 0,-0.64962 0.389771,-1.11026 0.401581,-0.46064 0.96852,-0.46064 0.76773,0 0.76773,0.74411 0,0.38977 -0.271658,0.67324 -0.259847,0.27166 -0.614184,0.27166 -0.555128,0 -0.555128,-0.53151 l 0.02362,-0.23622 q 0.02362,-0.0473 0.02362,-0.12993 0,-0.11811 -0.106301,-0.11811 -0.118112,0 -0.236224,0.29528 -0.118113,0.29528 -0.118113,0.60238 0,1.1575 1.216557,1.96066 1.216556,0.79135 2.988241,0.79135 2.539414,0 5.586711,-2.49217 0.696862,-0.55512 1.547271,-1.46459 1.689005,-1.77168 2.69296,-2.76383 l 0.354337,-0.36615 h -2.291379 l 0.141735,-0.2126 q 1.133878,0 2.326812,0.0236 3.46069,-3.85047 6.708778,-5.62215 3.259899,-1.78349 6.885946,-1.80712 0.838597,-0.16535 1.570893,-0.16535 1.641761,0 1.641761,0.5315 z m -3.744159,-0.14173 q -3.082731,0.15354 -5.716635,1.77168 -2.633904,1.61814 -6.070971,5.43317 h 4.476455 q 1.511838,-2.63391 3.64967,-4.7245 2.102399,-2.07877 3.661481,-2.48035 z"
         style="font-style:normal;font-variant:normal;font-weight:normal;font-stretch:normal;line-height:0.25;font-family:'Edwardian Script ITC';-inkscape-font-specification:'Edwardian Script ITC';fill:#14162c;fill-opacity:1"
         id="path1421"
         inkscape:connector-curvature="0" />
      <path
         d="m 82.216017,143.74876 q 0,0.0945 -0.708674,0.86222 -0.897653,0.99214 -1.689006,0.99214 -0.897653,0 -0.897653,-1.03939 0,-0.33071 0.141735,-0.83859 -0.744108,0.64961 -1.216557,1.28742 -0.460638,0.63781 -1.606327,2.59847 -0.625995,-0.0472 -0.732296,-0.0472 -0.04725,0 -0.720485,0.0472 l 1.937041,-3.14179 q 1.452781,-2.36224 1.452781,-2.92918 0,-0.33072 -0.271658,-0.33072 -0.661429,0 -2.397679,2.53942 -0.106301,0.16536 -0.18898,0.16536 -0.04725,-0.0118 -0.04725,-0.0709 0.01181,-0.0591 0.04725,-0.0945 l 0.212602,-0.29528 q 1.818929,-2.4213 2.468547,-2.4213 0.944898,0 0.944898,1.21655 0,0.90947 -0.96852,2.40949 0.614183,-0.70867 1.169311,-1.1575 0.448827,-1.0512 1.110256,-1.75987 0.67324,-0.70867 1.204745,-0.70867 0.366148,0 0.366148,0.3189 0,0.56694 -1.641761,1.61814 -0.259847,0.16535 -0.779541,0.48426 l -0.141734,0.11811 q -0.165358,0.54332 -0.165358,0.89765 0,0.99215 0.744108,0.99215 0.921276,0 2.007909,-1.52365 0.236224,-0.25985 0.29528,-0.25985 0.07087,0 0.07087,0.0709 z"
         style="font-style:normal;font-variant:normal;font-weight:normal;font-stretch:normal;line-height:0.25;font-family:'Edwardian Script ITC';-inkscape-font-specification:'Edwardian Script ITC';fill:#14162c;fill-opacity:1"
         id="path1423"
         inkscape:connector-curvature="0" />
      <path
         d="m 86.550738,141.03218 -0.09449,0.17716 h -1.547271 l -2.633904,4.50008 q -0.48426,0.81498 -0.48426,1.29924 0,0.5315 0.555128,0.5315 1.074822,0 3.626047,-3.74416 0.08268,-0.11811 0.141735,-0.11811 0.07087,0 0.07087,0.0709 -0.01181,0.0354 -0.118112,0.18898 l -0.507883,0.69686 q -2.220511,3.08273 -3.342578,3.08273 -0.555127,0 -0.933087,-0.40158 -0.366148,-0.40158 -0.366148,-1.00396 0,-0.70867 0.625995,-1.77168 l 1.984287,-3.33077 h -1.204746 l 0.118113,-0.17716 h 1.181122 l 1.381914,-2.29138 q 0.354337,0.0945 0.67324,0.0945 0.330715,0 0.685051,-0.0945 l -1.358291,2.29138 z"
         style="font-style:normal;font-variant:normal;font-weight:normal;font-stretch:normal;line-height:0.25;font-family:'Edwardian Script ITC';-inkscape-font-specification:'Edwardian Script ITC';fill:#14162c;fill-opacity:1"
         id="path1425"
         inkscape:connector-curvature="0" />
      <path
         d="m 110.95274,134.33521 q 0,0.76773 -1.06301,1.59451 0.96852,1.42916 0.96852,2.63391 0,0.29528 -0.17717,0.29528 -0.14174,0 -0.14174,-0.38977 0,-1.18112 -0.82678,-2.39768 -1.71263,1.27561 -4.66544,2.2087 -2.94099,0.92127 -5.220561,0.92127 -0.318903,0 -0.555127,-0.0236 -1.889797,2.63391 -1.889797,5.07883 0,1.66538 1.027577,2.6339 1.039388,0.96853 2.822888,0.96853 3.3662,0 6.0001,-3.22447 1.59452,-1.94885 1.59452,-3.69691 0,-0.92128 -0.55513,-1.4646 -0.55513,-0.54331 -1.47641,-0.54331 -1.4764,0 -3.17722,1.55908 -1.689,1.54727 -1.689,2.89375 0,0.11811 0.0709,0.11811 0.059,-0.0118 0.0945,-0.0472 0.3189,-0.28347 0.59056,-0.28347 0.60237,0 0.60237,0.64962 0,0.87403 -0.85041,0.87403 -0.77954,0 -0.77954,-0.9449 0,-1.68901 1.71263,-3.34258 1.71263,-1.66538 3.4725,-1.66538 2.26776,0 2.26776,2.49217 0,2.57484 -2.46855,4.70087 -2.45674,2.11421 -5.45679,2.11421 -2.090587,0 -3.519745,-1.40554 -1.417348,-1.40554 -1.417348,-3.4725 0,-2.00791 1.405536,-4.12212 -5.114261,-0.9449 -5.114261,-4.03944 0,-1.84255 1.901607,-3.08273 1.901608,-1.24018 4.736303,-1.24018 3.956758,0 7.996198,2.6339 0.69687,-0.14173 1.42916,-0.14173 2.35044,0 2.35044,1.1575 z m -0.18898,0 q 0,-0.96852 -1.8898,-0.96852 -0.59056,0 -1.40554,0.16536 1.40554,0.96852 2.32682,2.25594 0.96852,-0.82679 0.96852,-1.45278 z m -1.14569,1.57089 q -0.90947,-1.31104 -2.44493,-2.32681 -2.2087,0.60237 -4.31109,2.07878 -2.1024,1.46459 -3.448884,3.34257 2.468544,0 5.456784,-0.89765 3.00006,-0.90946 4.74812,-2.19689 z m -2.77564,-2.53941 q -3.59061,-2.07878 -7.641866,-2.07878 -2.50398,0 -4.381965,1.18112 -1.866174,1.18113 -1.866174,2.76383 0,2.82289 4.795358,3.64967 2.976427,-4.14574 9.094647,-5.51584 z"
         style="font-style:normal;font-variant:normal;font-weight:normal;font-stretch:normal;line-height:0.25;font-family:'Edwardian Script ITC';-inkscape-font-specification:'Edwardian Script ITC';fill:#14162c;fill-opacity:1"
         id="path1427"
         inkscape:connector-curvature="0" />
      <path
         d="m 116.77567,143.72514 q 0,0.18898 -0.69686,0.88584 -1.03939,1.03939 -1.91342,1.03939 -0.36615,0 -0.64962,-0.14174 -1.55908,2.2087 -2.92919,2.2087 -0.70867,0 -1.21655,-0.57875 -0.49607,-0.59056 -0.49607,-1.40554 0,-1.81892 2.38586,-3.50793 1.6772,-1.19293 2.76383,-1.19293 1.01577,0 1.01577,1.08663 0,1.35829 -1.42916,3.27171 0.23622,0.14173 0.5315,0.14173 0.53151,0 1.24018,-0.49607 0.70868,-0.49607 1.1575,-1.19293 0.12993,-0.16536 0.18898,-0.16536 0.0473,0 0.0473,0.0473 z m -1.91342,-1.58271 q 0,-0.95671 -0.86222,-0.95671 -1.07482,0 -2.62209,2.05516 -1.54727,2.05515 -1.54727,3.46068 0,0.81498 0.77954,0.81498 1.27561,0 2.78745,-2.1024 -0.34253,-0.37796 -0.34253,-0.77954 0,-0.57875 0.46064,-1.19293 0.46064,-0.61419 0.89765,-0.61419 0.18898,0 0.25985,0.23623 0.18898,-0.4134 0.18898,-0.92128 z"
         style="font-style:normal;font-variant:normal;font-weight:normal;font-stretch:normal;line-height:0.25;font-family:'Edwardian Script ITC';-inkscape-font-specification:'Edwardian Script ITC';fill:#14162c;fill-opacity:1"
         id="path1429"
         inkscape:connector-curvature="0" />
      <path
         d="m 129.957,143.74876 q -0.0118,0.0354 -0.11811,0.18898 l -0.50788,0.69686 q -2.22051,3.08273 -3.28352,3.08273 -0.55513,0 -0.90947,-0.41339 -0.35433,-0.4134 -0.35433,-1.06301 0,-0.66143 0.44882,-1.42916 0.0827,-0.14174 0.86222,-1.2638 0.99215,-1.41735 0.99215,-1.85437 0,-0.48426 -0.48426,-0.48426 -1.55909,0 -5.35049,6.40169 -0.23623,-0.0472 -0.64962,-0.0472 -0.48426,0 -0.82678,0.0472 l 1.67719,-2.65753 q 1.64176,-2.62209 1.64176,-3.21265 0,-0.53151 -0.43701,-0.53151 -0.64962,0 -2.12603,1.86618 -1.4764,1.86617 -2.92918,4.53551 -0.27166,-0.0472 -0.69686,-0.0472 -0.46064,0 -0.80317,0.0472 l 1.68901,-2.65753 q 1.74806,-2.7402 1.74806,-3.38982 0,-0.35434 -0.27166,-0.35434 -0.57875,0 -2.39768,2.53942 -0.11811,0.16536 -0.18898,0.16536 -0.0472,-0.0118 -0.0472,-0.0709 0,-0.1063 1.08663,-1.47641 1.06301,-1.33466 1.64176,-1.33466 0.37796,0 0.64962,0.36614 0.27166,0.35434 0.27166,0.85041 0,0.68505 -0.69686,1.90161 2.12602,-3.11816 3.16541,-3.11816 0.49607,0 0.81497,0.40158 0.3189,0.40158 0.3189,1.00395 0,0.67324 -0.62599,1.71263 2.24413,-3.11816 3.3662,-3.11816 0.50788,0 0.85041,0.43701 0.35433,0.43702 0.35433,1.06301 0,0.7323 -0.57875,1.71263 -0.0118,0.0118 -1.01576,1.51184 -0.57875,0.85041 -0.57875,1.29923 0,0.48426 0.48426,0.48426 0.92127,0 3.04729,-2.97643 l 0.36615,-0.50788 0.2126,-0.25985 q 0.0591,-0.11811 0.11812,-0.11811 0.0709,0 0.0709,0.0709 z"
         style="font-style:normal;font-variant:normal;font-weight:normal;font-stretch:normal;line-height:0.25;font-family:'Edwardian Script ITC';-inkscape-font-specification:'Edwardian Script ITC';fill:#14162c;fill-opacity:1"
         id="path1431"
         inkscape:connector-curvature="0" />
      <path
         d="m 135.62639,142.92197 q 0,1.92523 -2.39768,3.50794 -1.94885,1.28742 -3.0473,1.28742 -0.75591,0 -0.75591,-0.70867 0,-0.21261 0.11811,-0.57875 l -4.5237,7.54737 q -0.4134,-0.0945 -0.67324,-0.0945 -0.38977,0 -0.76773,0.14174 l 9.69702,-15.94516 q 0.3189,0.1063 0.62599,0.1063 0.3189,0 0.77954,-0.1063 l -3.50793,5.66939 q 1.2638,-1.6772 1.83074,-2.19689 0.57875,-0.51969 1.14569,-0.51969 0.62599,0 1.0512,0.54331 0.4252,0.54332 0.4252,1.34648 z m -0.87403,-0.9449 q 0,-0.76773 -0.68505,-0.76773 -0.86222,0 -2.89375,2.77564 -1.5709,2.14965 -1.5709,2.95281 0,0.60237 0.55513,0.60237 1.08664,0 2.8347,-2.11421 1.75987,-2.12602 1.75987,-3.44888 z"
         style="font-style:normal;font-variant:normal;font-weight:normal;font-stretch:normal;line-height:0.25;font-family:'Edwardian Script ITC';-inkscape-font-specification:'Edwardian Script ITC';fill:#14162c;fill-opacity:1"
         id="path1433"
         inkscape:connector-curvature="0" />
      <path
         d="m 142.38241,143.74876 q 0,0.0354 -0.2126,0.30709 l -0.50788,0.63781 q -2.44493,3.02367 -4.19299,3.02367 -0.82678,0 -1.39372,-0.59056 -0.55513,-0.60237 -0.55513,-1.50003 0,-2.12602 2.96462,-3.74416 1.55908,-0.8504 2.53941,-0.8504 0.42521,0 0.72049,0.25984 0.30709,0.24804 0.30709,0.61419 0,0.8504 -1.11026,1.45278 -1.11025,0.59056 -3.70872,1.11025 -0.80317,1.21656 -0.80317,2.03153 0,1.01577 1.09845,1.01577 1.86617,0 4.57094,-3.64967 0.14174,-0.18898 0.23623,-0.18898 0.0472,0.0118 0.0472,0.0709 z m -0.99214,-2.18508 q 0,-0.37796 -0.41339,-0.37796 -0.626,0 -1.65357,0.87403 -1.01577,0.86222 -1.9961,2.24414 1.70081,-0.43702 2.88194,-1.22837 1.18112,-0.80317 1.18112,-1.51184 z"
         style="font-style:normal;font-variant:normal;font-weight:normal;font-stretch:normal;line-height:0.25;font-family:'Edwardian Script ITC';-inkscape-font-specification:'Edwardian Script ITC';fill:#14162c;fill-opacity:1"
         id="path1435"
         inkscape:connector-curvature="0" />
      <path
         d="m 146.74076,141.03218 -0.0945,0.17716 H 145.099 l -2.63391,4.50008 q -0.48426,0.81498 -0.48426,1.29924 0,0.5315 0.55513,0.5315 1.07482,0 3.62605,-3.74416 0.0827,-0.11811 0.14173,-0.11811 0.0709,0 0.0709,0.0709 -0.0118,0.0354 -0.11811,0.18898 l -0.50789,0.69686 q -2.22051,3.08273 -3.34258,3.08273 -0.55512,0 -0.93308,-0.40158 -0.36615,-0.40158 -0.36615,-1.00396 0,-0.70867 0.62599,-1.77168 l 1.98429,-3.33077 h -1.20474 l 0.11811,-0.17716 h 1.18112 l 1.38191,-2.29138 q 0.35434,0.0945 0.67324,0.0945 0.33072,0 0.68506,-0.0945 l -1.3583,2.29138 z"
         style="font-style:normal;font-variant:normal;font-weight:normal;font-stretch:normal;line-height:0.25;font-family:'Edwardian Script ITC';-inkscape-font-specification:'Edwardian Script ITC';fill:#14162c;fill-opacity:1"
         id="path1437"
         inkscape:connector-curvature="0" />
      <path
         d="m 150.27231,138.85891 q 0,0.41339 -0.35434,0.77954 -0.34252,0.35434 -0.75591,0.35434 -0.53151,0 -0.53151,-0.53151 0,-0.38977 0.36615,-0.74411 0.36615,-0.36614 0.76773,-0.36614 0.50788,0 0.50788,0.50788 z m 0.16536,4.88985 q -0.0118,0.0354 -0.11811,0.18898 l -0.50789,0.69686 q -2.22051,3.08273 -3.38982,3.08273 -0.55513,0 -0.93309,-0.38977 -0.36614,-0.40158 -0.36614,-0.99214 0,-0.68505 0.81497,-2.07878 l 1.84255,-3.12997 q 0.36615,0.0827 0.57875,0.0827 0.31891,0 0.89766,-0.0827 l -2.68115,4.40558 q -0.57875,0.95671 -0.57875,1.47641 0,0.5315 0.55512,0.5315 1.0512,0 3.69692,-3.74416 0.059,-0.11811 0.11811,-0.11811 0.0709,0 0.0709,0.0709 z"
         style="font-style:normal;font-variant:normal;font-weight:normal;font-stretch:normal;line-height:0.25;font-family:'Edwardian Script ITC';-inkscape-font-specification:'Edwardian Script ITC';fill:#14162c;fill-opacity:1"
         id="path1439"
         inkscape:connector-curvature="0" />
      <path
         d="m 154.81964,141.03218 -0.0945,0.17716 h -1.54727 l -2.63391,4.50008 q -0.48426,0.81498 -0.48426,1.29924 0,0.5315 0.55513,0.5315 1.07482,0 3.62605,-3.74416 0.0827,-0.11811 0.14173,-0.11811 0.0709,0 0.0709,0.0709 -0.0118,0.0354 -0.11811,0.18898 l -0.50789,0.69686 q -2.22051,3.08273 -3.34257,3.08273 -0.55513,0 -0.93309,-0.40158 -0.36615,-0.40158 -0.36615,-1.00396 0,-0.70867 0.626,-1.77168 l 1.98428,-3.33077 h -1.20474 l 0.11811,-0.17716 h 1.18112 l 1.38192,-2.29138 q 0.35433,0.0945 0.67324,0.0945 0.33071,0 0.68505,-0.0945 l -1.35829,2.29138 z"
         style="font-style:normal;font-variant:normal;font-weight:normal;font-stretch:normal;line-height:0.25;font-family:'Edwardian Script ITC';-inkscape-font-specification:'Edwardian Script ITC';fill:#14162c;fill-opacity:1"
         id="path1441"
         inkscape:connector-curvature="0" />
      <path
         d="m 158.35119,138.85891 q 0,0.41339 -0.35434,0.77954 -0.34252,0.35434 -0.75591,0.35434 -0.53151,0 -0.53151,-0.53151 0,-0.38977 0.36615,-0.74411 0.36615,-0.36614 0.76773,-0.36614 0.50788,0 0.50788,0.50788 z m 0.16536,4.88985 q -0.0118,0.0354 -0.11811,0.18898 l -0.50789,0.69686 q -2.22051,3.08273 -3.38982,3.08273 -0.55513,0 -0.93309,-0.38977 -0.36614,-0.40158 -0.36614,-0.99214 0,-0.68505 0.81497,-2.07878 l 1.84255,-3.12997 q 0.36615,0.0827 0.57875,0.0827 0.31891,0 0.89766,-0.0827 l -2.68115,4.40558 q -0.57875,0.95671 -0.57875,1.47641 0,0.5315 0.55512,0.5315 1.0512,0 3.69692,-3.74416 0.0591,-0.11811 0.11811,-0.11811 0.0709,0 0.0709,0.0709 z"
         style="font-style:normal;font-variant:normal;font-weight:normal;font-stretch:normal;line-height:0.25;font-family:'Edwardian Script ITC';-inkscape-font-specification:'Edwardian Script ITC';fill:#14162c;fill-opacity:1"
         id="path1443"
         inkscape:connector-curvature="0" />
      <path
         d="m 165.53242,143.72514 q 0,0.18898 -0.69686,0.88584 -1.03939,1.03939 -1.91342,1.03939 -0.36615,0 -0.64962,-0.14174 -1.55908,2.2087 -2.92918,2.2087 -0.70868,0 -1.21656,-0.57875 -0.49607,-0.59056 -0.49607,-1.40554 0,-1.81892 2.38587,-3.50793 1.67719,-1.19293 2.76382,-1.19293 1.01577,0 1.01577,1.08663 0,1.35829 -1.42916,3.27171 0.23623,0.14173 0.53151,0.14173 0.5315,0 1.24018,-0.49607 0.70867,-0.49607 1.1575,-1.19293 0.12992,-0.16536 0.18898,-0.16536 0.0472,0 0.0472,0.0473 z m -1.91342,-1.58271 q 0,-0.95671 -0.86222,-0.95671 -1.07482,0 -2.62209,2.05516 -1.54727,2.05515 -1.54727,3.46068 0,0.81498 0.77954,0.81498 1.27561,0 2.78745,-2.1024 -0.34253,-0.37796 -0.34253,-0.77954 0,-0.57875 0.46064,-1.19293 0.46064,-0.61419 0.89765,-0.61419 0.18898,0 0.25985,0.23623 0.18898,-0.4134 0.18898,-0.92128 z"
         style="font-style:normal;font-variant:normal;font-weight:normal;font-stretch:normal;line-height:0.25;font-family:'Edwardian Script ITC';-inkscape-font-specification:'Edwardian Script ITC';fill:#14162c;fill-opacity:1"
         id="path1445"
         inkscape:connector-curvature="0" />
      <path
         d="m 175.04046,143.74876 q 0,0.24803 -1.71262,2.29138 -1.40554,1.67719 -2.2087,1.67719 -0.53151,0 -0.89766,-0.41339 -0.35433,-0.4134 -0.35433,-1.01577 0,-0.5315 0.2126,-0.98033 0.22441,-0.46064 1.14569,-1.80712 0.95671,-1.41735 0.95671,-1.80712 0,-0.48426 -0.50789,-0.48426 -1.72443,0 -5.31505,6.40169 -0.57875,-0.0472 -0.69686,-0.0472 -0.41339,0 -0.77954,0.0472 l 1.84255,-2.91737 q 1.57089,-2.50398 1.57089,-3.12998 0,-0.35434 -0.29528,-0.35434 -0.60237,0 -2.37405,2.53942 -0.10631,0.15354 -0.16536,0.16536 -0.0591,0 -0.0709,-0.0709 0.0118,-0.0591 0.0472,-0.0945 l 0.22441,-0.29528 q 1.80712,-2.4213 2.43311,-2.4213 0.40158,0 0.68505,0.36614 0.28347,0.36615 0.28347,0.87403 0,0.75592 -0.88584,2.1024 1.39373,-1.92523 2.13783,-2.6339 0.75592,-0.70867 1.39373,-0.70867 0.51969,0 0.87403,0.4252 0.35434,0.4252 0.35434,1.0512 0,0.79135 -1.08664,2.4213 -1.11025,1.66538 -1.11025,2.12602 0,0.48426 0.48426,0.48426 1.0512,0 3.62604,-3.74416 0.0591,-0.11811 0.11812,-0.11811 0.0709,0 0.0709,0.0709 z"
         style="font-style:normal;font-variant:normal;font-weight:normal;font-stretch:normal;line-height:0.25;font-family:'Edwardian Script ITC';-inkscape-font-specification:'Edwardian Script ITC';fill:#14162c;fill-opacity:1"
         id="path1447"
         inkscape:connector-curvature="0" />
    </g>
    <g
       aria-label="M"
       transform="matrix(0.83944167,-0.54228197,0.5451398,0.835041,-0.01736922,0.13807439)"
       style="font-style:normal;font-variant:normal;font-weight:normal;font-stretch:normal;font-size:9.72140884px;line-height:1.25;font-family:sans-serif;-inkscape-font-specification:sans-serif;font-variant-ligatures:normal;font-variant-position:normal;font-variant-caps:normal;font-variant-numeric:normal;font-variant-alternates:normal;font-feature-settings:normal;text-indent:0;text-align:start;text-decoration:none;text-decoration-line:none;text-decoration-style:solid;text-decoration-color:#000000;letter-spacing:0px;word-spacing:0px;text-transform:none;writing-mode:lr-tb;direction:ltr;text-orientation:mixed;dominant-baseline:auto;baseline-shift:baseline;text-anchor:start;white-space:normal;shape-padding:0;opacity:1;vector-effect:none;fill:#14162c;fill-opacity:1;stroke:none;stroke-width:0.24303527;stroke-linecap:butt;stroke-linejoin:miter;stroke-miterlimit:4;stroke-dasharray:none;stroke-dashoffset:0;stroke-opacity:1"
       id="text4618">
      <path
         d="m 19.213431,31.387561 q 0,0.02373 -0.128163,0.09019 -0.555374,0.2943 -0.977837,0.849674 -0.422464,0.555373 -0.963597,1.704094 -0.787966,1.670867 -1.409794,2.401872 -0.617082,0.731004 -1.528464,1.049039 0.422464,0.06171 0.650309,0.06171 0.731005,0 1.167709,-0.308541 0.44145,-0.313288 1.243656,-1.395554 0.05222,-0.06645 0.0807,-0.06645 0.01899,0.0047 0.01899,0.02848 0,0.04747 -0.446198,0.612335 -0.545879,0.69303 -0.977837,0.944609 -0.42721,0.25158 -1.053785,0.25158 -0.389236,0 -0.84018,-0.08544 -0.318035,0.104429 -0.65031,0.104429 -0.251579,0 -0.251579,-0.09494 0,-0.118669 0.351262,-0.118669 0.194618,0 0.512652,0.04747 h 0.06171 q 0.503159,-0.180377 0.849674,-0.569613 0.351262,-0.393983 0.840181,-1.324352 0.992077,-1.884473 1.571184,-2.667692 0.560121,-0.749991 1.34334,-1.281631 0.393983,-0.261073 0.507905,-0.261073 0.02848,0 0.02848,0.02848 z m 2.283202,1.286378 q 0,0.185124 -0.04272,0.360755 -0.03797,0.170884 -0.08069,0.170884 -0.03323,0 -0.03323,-0.02848 0.0047,-0.01899 0.0095,-0.03798 0.0712,-0.166137 0.0712,-0.446197 0,-0.631322 -0.503158,-1.068026 -0.503159,-0.441451 -1.229417,-0.441451 -1.172455,0 -2.401871,1.148722 -0.484172,0.450944 -0.835434,0.878154 -0.337021,0.403477 -1.319605,1.708842 -1.452515,1.922446 -2.382885,2.401871 -0.417716,0.213605 -0.536386,0.213605 -0.02848,0 -0.02848,-0.03323 0.0047,-0.0047 0.09968,-0.07595 0.465184,-0.346515 0.740498,-0.930369 0.256326,-0.536386 0.920875,-2.539528 0.564867,-1.708842 1.291125,-2.44934 0.02848,-0.02848 0.02848,-0.04747 -0.06171,-0.01899 -0.28006,0.204111 -0.707271,0.702524 -1.661374,2.525288 -0.588601,1.120241 -1.034798,1.699348 -0.441451,0.574361 -1.053786,1.011064 -1.006318,0.721511 -2.022129,0.721511 -0.6598026,0 -1.0775194,-0.275313 -0.41297,-0.28006 -0.41297,-0.716764 0,-0.246833 0.1424034,-0.41297 0.1424035,-0.170884 0.3560086,-0.170884 0.3085408,0 0.3085408,0.303794 0,0.156644 -0.099682,0.270566 -0.099682,0.109176 -0.2420858,0.109176 -0.2325923,0 -0.2325923,-0.256326 0,-0.09494 -0.037974,-0.09494 -0.075949,0 -0.075949,0.261073 0,0.389237 0.3844893,0.640816 0.3892361,0.246833 0.9968242,0.246833 1.2389102,0 2.4303522,-1.286378 0.479425,-0.517399 0.811699,-1.006318 0.332275,-0.493665 1.324353,-2.140798 0.417716,-0.697777 0.939862,-1.267391 0.526893,-0.569614 0.749992,-0.569614 0.03323,0 0.03323,0.02848 -0.0047,0.01899 -0.01899,0.03797 -0.441451,0.484172 -0.797459,1.827511 -0.53164,1.969914 -1.001571,2.867056 -0.465185,0.873408 -1.196189,1.324352 -0.01899,0.0047 -0.01899,0.01899 0.0047,0.0047 0.01899,0.0095 0.109176,0 0.531639,-0.303794 0.512653,-0.360756 0.94461,-0.863914 0.431957,-0.503159 1.566438,-2.060104 0.802206,-1.101253 1.272137,-1.609159 0.474679,-0.512652 1.049039,-0.901888 0.897142,-0.602841 1.808524,-0.602841 0.797459,0 1.310112,0.465184 0.517399,0.465185 0.517399,1.181949 z m -7.523649,-0.26582 q 0,0.104429 -0.270567,0.408223 -0.408223,0.460438 -0.787965,0.460438 -0.261073,0 -0.441451,-0.189871 -0.180378,-0.194618 -0.180378,-0.474678 0,-0.270567 0.194618,-0.650309 0.242086,-0.474679 0.242086,-0.669297 0,-0.242086 -0.227845,-0.389236 -0.227846,-0.14715 -0.598095,-0.14715 -1.058532,0 -1.9889013,0.854421 -0.9303692,0.85442 -0.9303692,1.818017 0,0.498412 0.303794,0.816447 0.3085408,0.313287 0.7879655,0.313287 0.427211,0 0.863915,-0.242086 0.44145,-0.246832 0.712017,-0.631322 0.01899,-0.02373 0.02848,-0.02373 0.03798,0 0.03798,0.04272 0,0.09494 -0.303794,0.365503 -0.626575,0.564867 -1.35758,0.564867 -0.5126523,0 -0.8354334,-0.332275 -0.3227812,-0.332275 -0.3227812,-0.863914 0,-1.030052 0.9493563,-1.893966 0.9541033,-0.863915 2.0838373,-0.863915 0.465185,0 0.726257,0.232593 0.26582,0.232592 0.26582,0.640815 0,0.303794 -0.303794,0.925623 -0.104429,0.218352 -0.104429,0.346515 0,0.360755 0.389236,0.360755 0.232592,0 0.517399,-0.223099 0.289554,-0.223098 0.465185,-0.545879 0.02373,-0.04747 0.04747,-0.04747 0.03797,0 0.03797,0.03797 z"
         style="font-style:normal;font-variant:normal;font-weight:normal;font-stretch:normal;font-family:'Edwardian Script ITC';-inkscape-font-specification:'Edwardian Script ITC';fill:#14162c;fill-opacity:1;stroke-width:0.24303527"
         id="path1412"
         inkscape:connector-curvature="0" />
    </g>
  </g>
</svg>
