<svg height="488pt" viewBox="-4 0 488 488" width="488pt" xmlns="http://www.w3.org/2000/svg"><path d="m472 152h-32.800781l-151.351563-100.921875c.0625-1.023437.152344-2.039063.152344-3.078125 0-26.507812-21.492188-48-48-48s-48 21.492188-48 48c0 1.039062.089844 2.054688.152344 3.078125l-151.351563 100.921875h-32.800781c-4.417969 0-8 3.582031-8 8v320c0 4.417969 3.582031 8 8 8h464c4.417969 0 8-3.582031 8-8v-320c0-4.417969-3.582031-8-8-8zm-61.601562 0h-28.796876l-106.714843-71.128906c3.679687-3.898438 6.683593-8.382813 8.890625-13.269532zm-191.597657-61.007812c13.359375 6.675781 29.085938 6.675781 42.445313 0l91.554687 61.007812h-225.601562zm21.199219-74.992188c17.671875 0 32 14.328125 32 32s-14.328125 32-32 32-32-14.328125-32-32 14.328125-32 32-32zm-43.777344 51.601562c2.207032 4.886719 5.210938 9.371094 8.890625 13.269532l-106.714843 71.128906h-28.796876zm267.777344 404.398438h-448v-304h448zm0 0"/><path d="m32 464h416c4.417969 0 8-3.582031 8-8v-272c0-4.417969-3.582031-8-8-8h-416c-4.417969 0-8 3.582031-8 8v272c0 4.417969 3.582031 8 8 8zm8-16v-99.199219l68.984375-45.257812c7.292969 7.882812 17.558594 12.34375 28.296875 12.296875 11.648438-.097656 22.683594-5.234375 30.261719-14.078125 4.488281-6.042969 11.570312-9.609375 19.097656-9.609375s14.609375 3.566406 19.09375 9.609375c7.492187 8.910156 18.539063 14.054687 30.179687 14.054687 11.644532 0 22.691407-5.144531 30.183594-14.054687 4.5-6.050781 11.597656-9.617188 19.136719-9.617188 7.542969 0 14.640625 3.566407 19.140625 9.617188 7.484375 8.902343 18.511719 14.054687 30.144531 14.078125 11.628907.019531 22.675781-5.089844 30.191407-13.96875.519531-.488282 1.082031-.933594 1.601562-1.421875l73.6875 48.351562v99.199219zm400-118.34375-101.207031-66.398438 32.0625-21.035156c7.980469-5.222656 18.300781-5.222656 26.28125 0l42.863281 28.097656zm-87.480469-38.265625c-4.410156 5.332031-10.960937 8.429687-17.878906 8.449219-7.523437-.128906-14.582031-3.660156-19.199219-9.601563-7.503906-8.917969-18.566406-14.0625-30.222656-14.0625-11.652344 0-22.714844 5.144531-30.21875 14.0625-4.484375 6.042969-11.566406 9.609375-19.09375 9.609375-7.523438 0-14.605469-3.566406-19.089844-9.609375-7.492187-8.910156-18.539062-14.054687-30.179687-14.054687-11.644531 0-22.691407 5.144531-30.179688 14.054687-4.621093 5.941407-11.679687 9.46875-19.199219 9.601563-5.339843.148437-10.523437-1.78125-14.464843-5.382813l104-68.257812c7.992187-5.246094 18.339843-5.246094 26.335937 0zm87.480469-99.390625v59.199219l-34.097656-22.398438c-13.304688-8.710937-30.507813-8.710937-43.8125 0l-37.882813 24.878907-62.261719-40.878907c-13.324218-8.742187-30.566406-8.742187-43.890624 0l-178.054688 116.855469v-137.65625zm0 0"/><path d="m240 72c13.253906 0 24-10.746094 24-24s-10.746094-24-24-24-24 10.746094-24 24 10.746094 24 24 24zm0-32c4.417969 0 8 3.582031 8 8s-3.582031 8-8 8-8-3.582031-8-8 3.582031-8 8-8zm0 0"/><path d="m416 424h16v16h-16zm0 0"/><path d="m392 424h16v16h-16zm0 0"/><path d="m416 400h16v16h-16zm0 0"/></svg>